<mxfile host="app.diagrams.net" agent="Mozilla/5.0 (X11; Linux x86_64; rv:133.0) Gecko/20100101 Firefox/133.0" version="26.0.14">
  <diagram name="Page-1" id="l0oU_ryDuvMcpJFFtoJs">
    <mxGraphModel dx="1502" dy="1632" grid="1" gridSize="10" guides="1" tooltips="1" connect="1" arrows="1" fold="1" page="1" pageScale="1" pageWidth="850" pageHeight="1100" math="0" shadow="0">
      <root>
        <mxCell id="0" />
        <mxCell id="1" parent="0" />
        <mxCell id="pHll5_dqEuGhhgP8Clkl-1" value="" style="edgeStyle=orthogonalEdgeStyle;rounded=0;orthogonalLoop=1;jettySize=auto;html=1;fillColor=#d5e8d4;strokeColor=#82b366;" parent="1" source="pHll5_dqEuGhhgP8Clkl-2" target="pHll5_dqEuGhhgP8Clkl-41" edge="1">
          <mxGeometry relative="1" as="geometry" />
        </mxCell>
        <mxCell id="pHll5_dqEuGhhgP8Clkl-2" value="CS 162" style="rounded=0;whiteSpace=wrap;html=1;fillColor=#d5e8d4;strokeColor=#82b366;" parent="1" vertex="1">
          <mxGeometry x="120" y="560" width="60" height="40" as="geometry" />
        </mxCell>
        <mxCell id="pHll5_dqEuGhhgP8Clkl-3" value="" style="edgeStyle=orthogonalEdgeStyle;rounded=0;orthogonalLoop=1;jettySize=auto;html=1;entryX=0;entryY=0.5;entryDx=0;entryDy=0;fillColor=#d5e8d4;strokeColor=#82b366;" parent="1" source="pHll5_dqEuGhhgP8Clkl-4" target="pHll5_dqEuGhhgP8Clkl-45" edge="1">
          <mxGeometry relative="1" as="geometry">
            <Array as="points">
              <mxPoint x="340" y="420" />
              <mxPoint x="340" y="340" />
            </Array>
          </mxGeometry>
        </mxCell>
        <mxCell id="pHll5_dqEuGhhgP8Clkl-4" value="ECE 271/272" style="rounded=0;whiteSpace=wrap;html=1;fillColor=#d5e8d4;strokeColor=#82b366;" parent="1" vertex="1">
          <mxGeometry x="240" y="400" width="60" height="40" as="geometry" />
        </mxCell>
        <mxCell id="pHll5_dqEuGhhgP8Clkl-5" value="MTH 253" style="rounded=0;whiteSpace=wrap;html=1;fillColor=#d5e8d4;strokeColor=#82b366;" parent="1" vertex="1">
          <mxGeometry x="360" y="160" width="60" height="40" as="geometry" />
        </mxCell>
        <mxCell id="pHll5_dqEuGhhgP8Clkl-6" value="MTH 252" style="rounded=0;whiteSpace=wrap;html=1;fillColor=#d5e8d4;strokeColor=#82b366;" parent="1" vertex="1">
          <mxGeometry x="240" y="160" width="60" height="40" as="geometry" />
        </mxCell>
        <mxCell id="pHll5_dqEuGhhgP8Clkl-7" value="MTH 251" style="rounded=0;whiteSpace=wrap;html=1;fillColor=#d5e8d4;strokeColor=#82b366;" parent="1" vertex="1">
          <mxGeometry x="120" y="160" width="60" height="40" as="geometry" />
        </mxCell>
        <mxCell id="pHll5_dqEuGhhgP8Clkl-8" value="MTH 254" style="rounded=0;whiteSpace=wrap;html=1;fillColor=#d5e8d4;strokeColor=#82b366;" parent="1" vertex="1">
          <mxGeometry x="360" y="240" width="60" height="40" as="geometry" />
        </mxCell>
        <mxCell id="pHll5_dqEuGhhgP8Clkl-9" value="MTH 255" style="rounded=0;whiteSpace=wrap;html=1;fillColor=#d5e8d4;strokeColor=#82b366;" parent="1" vertex="1">
          <mxGeometry x="480" y="320" width="60" height="40" as="geometry" />
        </mxCell>
        <mxCell id="pHll5_dqEuGhhgP8Clkl-10" value="" style="edgeStyle=orthogonalEdgeStyle;rounded=0;orthogonalLoop=1;jettySize=auto;html=1;fillColor=#d5e8d4;strokeColor=#82b366;" parent="1" source="pHll5_dqEuGhhgP8Clkl-11" target="pHll5_dqEuGhhgP8Clkl-95" edge="1">
          <mxGeometry relative="1" as="geometry" />
        </mxCell>
        <mxCell id="pHll5_dqEuGhhgP8Clkl-11" value="&lt;div&gt;PH 211&lt;/div&gt;" style="rounded=0;whiteSpace=wrap;html=1;fillColor=#d5e8d4;strokeColor=#82b366;" parent="1" vertex="1">
          <mxGeometry x="240" width="60" height="40" as="geometry" />
        </mxCell>
        <mxCell id="pHll5_dqEuGhhgP8Clkl-12" value="&lt;div&gt;MTH 311&lt;/div&gt;" style="rounded=0;whiteSpace=wrap;html=1;fillColor=#d5e8d4;strokeColor=#82b366;" parent="1" vertex="1">
          <mxGeometry x="640" y="160" width="60" height="40" as="geometry" />
        </mxCell>
        <mxCell id="pHll5_dqEuGhhgP8Clkl-13" value="MTH 310" style="rounded=0;whiteSpace=wrap;html=1;fillColor=#d5e8d4;strokeColor=#82b366;" parent="1" vertex="1">
          <mxGeometry x="480" y="160" width="60" height="40" as="geometry" />
        </mxCell>
        <mxCell id="pHll5_dqEuGhhgP8Clkl-14" value="" style="edgeStyle=orthogonalEdgeStyle;rounded=0;orthogonalLoop=1;jettySize=auto;html=1;strokeColor=#82B366;exitX=1;exitY=0.5;exitDx=0;exitDy=0;" parent="1" source="pHll5_dqEuGhhgP8Clkl-16" target="pHll5_dqEuGhhgP8Clkl-74" edge="1">
          <mxGeometry relative="1" as="geometry">
            <Array as="points">
              <mxPoint x="840" y="180" />
              <mxPoint x="840" y="250" />
            </Array>
          </mxGeometry>
        </mxCell>
        <mxCell id="3y0I9gLtBBAWx4bMKy_n-2" style="edgeStyle=orthogonalEdgeStyle;rounded=0;orthogonalLoop=1;jettySize=auto;html=1;entryX=0;entryY=0.5;entryDx=0;entryDy=0;fillColor=#d5e8d4;strokeColor=#82b366;" parent="1" source="3y0I9gLtBBAWx4bMKy_n-3" target="3y0I9gLtBBAWx4bMKy_n-1" edge="1">
          <mxGeometry relative="1" as="geometry">
            <mxPoint x="820" y="180" as="sourcePoint" />
          </mxGeometry>
        </mxCell>
        <mxCell id="pHll5_dqEuGhhgP8Clkl-16" value="&lt;div&gt;MTH 312&lt;/div&gt;" style="rounded=0;whiteSpace=wrap;html=1;fillColor=#D5E8D4;strokeColor=#82B366;" parent="1" vertex="1">
          <mxGeometry x="760" y="160" width="60" height="40" as="geometry" />
        </mxCell>
        <mxCell id="pHll5_dqEuGhhgP8Clkl-17" value="" style="endArrow=classic;html=1;rounded=0;exitX=1;exitY=0.5;exitDx=0;exitDy=0;entryX=0;entryY=0.5;entryDx=0;entryDy=0;fillColor=#d5e8d4;strokeColor=#82b366;" parent="1" source="pHll5_dqEuGhhgP8Clkl-7" target="pHll5_dqEuGhhgP8Clkl-6" edge="1">
          <mxGeometry width="50" height="50" relative="1" as="geometry">
            <mxPoint x="430" y="280" as="sourcePoint" />
            <mxPoint x="480" y="230" as="targetPoint" />
          </mxGeometry>
        </mxCell>
        <mxCell id="pHll5_dqEuGhhgP8Clkl-18" value="" style="endArrow=classic;html=1;rounded=0;exitX=1;exitY=0.5;exitDx=0;exitDy=0;entryX=0;entryY=0.5;entryDx=0;entryDy=0;fillColor=#d5e8d4;strokeColor=#82b366;" parent="1" edge="1">
          <mxGeometry width="50" height="50" relative="1" as="geometry">
            <mxPoint x="300" y="179.55" as="sourcePoint" />
            <mxPoint x="360" y="179.55" as="targetPoint" />
          </mxGeometry>
        </mxCell>
        <mxCell id="pHll5_dqEuGhhgP8Clkl-19" value="" style="endArrow=classic;html=1;rounded=0;entryX=0;entryY=0.5;entryDx=0;entryDy=0;fillColor=#d5e8d4;strokeColor=#82b366;" parent="1" source="pHll5_dqEuGhhgP8Clkl-133" target="pHll5_dqEuGhhgP8Clkl-8" edge="1">
          <mxGeometry width="50" height="50" relative="1" as="geometry">
            <mxPoint x="320" y="180" as="sourcePoint" />
            <mxPoint x="260" y="200" as="targetPoint" />
            <Array as="points">
              <mxPoint x="320" y="260" />
            </Array>
          </mxGeometry>
        </mxCell>
        <mxCell id="pHll5_dqEuGhhgP8Clkl-20" value="" style="endArrow=classic;html=1;rounded=0;exitX=1;exitY=0.5;exitDx=0;exitDy=0;entryX=0;entryY=0.5;entryDx=0;entryDy=0;fillColor=#d5e8d4;strokeColor=#82b366;" parent="1" target="pHll5_dqEuGhhgP8Clkl-9" edge="1">
          <mxGeometry width="50" height="50" relative="1" as="geometry">
            <mxPoint x="420" y="259.55" as="sourcePoint" />
            <mxPoint x="480" y="259.55" as="targetPoint" />
            <Array as="points">
              <mxPoint x="460" y="260" />
              <mxPoint x="460" y="340" />
            </Array>
          </mxGeometry>
        </mxCell>
        <mxCell id="pHll5_dqEuGhhgP8Clkl-21" value="" style="endArrow=classic;html=1;rounded=0;exitX=1;exitY=0.5;exitDx=0;exitDy=0;entryX=0;entryY=0.5;entryDx=0;entryDy=0;fillColor=#d5e8d4;strokeColor=#82b366;" parent="1" source="pHll5_dqEuGhhgP8Clkl-5" target="pHll5_dqEuGhhgP8Clkl-13" edge="1">
          <mxGeometry width="50" height="50" relative="1" as="geometry">
            <mxPoint x="390" y="159.09" as="sourcePoint" />
            <mxPoint x="450" y="159.09" as="targetPoint" />
          </mxGeometry>
        </mxCell>
        <mxCell id="pHll5_dqEuGhhgP8Clkl-22" value="" style="endArrow=classic;html=1;rounded=0;exitDx=0;exitDy=0;entryX=0;entryY=0.25;entryDx=0;entryDy=0;fillColor=#d5e8d4;strokeColor=#82b366;" parent="1" source="pHll5_dqEuGhhgP8Clkl-139" target="pHll5_dqEuGhhgP8Clkl-12" edge="1">
          <mxGeometry width="50" height="50" relative="1" as="geometry">
            <mxPoint x="540" y="169.55" as="sourcePoint" />
            <mxPoint x="600" y="169.55" as="targetPoint" />
          </mxGeometry>
        </mxCell>
        <mxCell id="pHll5_dqEuGhhgP8Clkl-23" value="" style="endArrow=classic;html=1;rounded=0;exitX=1;exitY=0.5;exitDx=0;exitDy=0;entryX=0;entryY=0.75;entryDx=0;entryDy=0;fillColor=#d5e8d4;strokeColor=#82b366;" parent="1" source="pHll5_dqEuGhhgP8Clkl-8" target="pHll5_dqEuGhhgP8Clkl-12" edge="1">
          <mxGeometry width="50" height="50" relative="1" as="geometry">
            <mxPoint x="430" y="259.09000000000003" as="sourcePoint" />
            <mxPoint x="490" y="259.09000000000003" as="targetPoint" />
            <Array as="points">
              <mxPoint x="460" y="260" />
              <mxPoint x="460" y="220" />
              <mxPoint x="560" y="220" />
              <mxPoint x="560" y="190" />
            </Array>
          </mxGeometry>
        </mxCell>
        <mxCell id="pHll5_dqEuGhhgP8Clkl-24" value="" style="endArrow=classic;html=1;rounded=0;exitX=1;exitY=0.5;exitDx=0;exitDy=0;entryX=0;entryY=0.5;entryDx=0;entryDy=0;fillColor=#d5e8d4;strokeColor=#82b366;" parent="1" edge="1">
          <mxGeometry width="50" height="50" relative="1" as="geometry">
            <mxPoint x="700" y="179.55" as="sourcePoint" />
            <mxPoint x="760" y="179.55" as="targetPoint" />
          </mxGeometry>
        </mxCell>
        <mxCell id="pHll5_dqEuGhhgP8Clkl-25" value="MTH 341" style="rounded=0;whiteSpace=wrap;html=1;fillColor=#d5e8d4;strokeColor=#82b366;" parent="1" vertex="1">
          <mxGeometry x="480" y="240" width="60" height="40" as="geometry" />
        </mxCell>
        <mxCell id="pHll5_dqEuGhhgP8Clkl-26" value="MTH 342" style="rounded=0;whiteSpace=wrap;html=1;fillColor=#d5e8d4;strokeColor=#82b366;" parent="1" vertex="1">
          <mxGeometry x="640" y="320" width="60" height="40" as="geometry" />
        </mxCell>
        <mxCell id="pHll5_dqEuGhhgP8Clkl-28" value="" style="endArrow=classic;html=1;rounded=0;exitX=1;exitY=0.5;exitDx=0;exitDy=0;entryX=0;entryY=0.5;entryDx=0;entryDy=0;fillColor=#d5e8d4;strokeColor=#82b366;" parent="1" edge="1">
          <mxGeometry width="50" height="50" relative="1" as="geometry">
            <mxPoint x="420" y="259.55" as="sourcePoint" />
            <mxPoint x="480" y="259.55" as="targetPoint" />
          </mxGeometry>
        </mxCell>
        <mxCell id="pHll5_dqEuGhhgP8Clkl-29" value="" style="endArrow=classic;html=1;rounded=0;exitX=1;exitY=0.5;exitDx=0;exitDy=0;entryX=0;entryY=0.75;entryDx=0;entryDy=0;fillColor=#d5e8d4;strokeColor=#82b366;" parent="1" edge="1">
          <mxGeometry width="50" height="50" relative="1" as="geometry">
            <mxPoint x="540" y="259.55" as="sourcePoint" />
            <mxPoint x="640.0000000000002" y="270" as="targetPoint" />
            <Array as="points">
              <mxPoint x="580" y="260" />
              <mxPoint x="580" y="270" />
            </Array>
          </mxGeometry>
        </mxCell>
        <mxCell id="pHll5_dqEuGhhgP8Clkl-30" value="" style="endArrow=classic;html=1;rounded=0;exitDx=0;exitDy=0;entryX=0;entryY=0.5;entryDx=0;entryDy=0;fillColor=#d5e8d4;strokeColor=#82b366;" parent="1" source="pHll5_dqEuGhhgP8Clkl-138" target="pHll5_dqEuGhhgP8Clkl-26" edge="1">
          <mxGeometry width="50" height="50" relative="1" as="geometry">
            <mxPoint x="540" y="259.55" as="sourcePoint" />
            <mxPoint x="600" y="259.55" as="targetPoint" />
            <Array as="points">
              <mxPoint x="560" y="260" />
              <mxPoint x="560" y="340" />
            </Array>
          </mxGeometry>
        </mxCell>
        <mxCell id="pHll5_dqEuGhhgP8Clkl-31" value="" style="endArrow=classic;html=1;rounded=0;exitX=1;exitY=0.5;exitDx=0;exitDy=0;entryX=0;entryY=0.25;entryDx=0;entryDy=0;fillColor=#d5e8d4;strokeColor=#82b366;" parent="1" edge="1">
          <mxGeometry width="50" height="50" relative="1" as="geometry">
            <mxPoint x="540" y="179.55" as="sourcePoint" />
            <mxPoint x="640.0000000000002" y="250" as="targetPoint" />
            <Array as="points">
              <mxPoint x="580" y="180" />
              <mxPoint x="580" y="250" />
            </Array>
          </mxGeometry>
        </mxCell>
        <mxCell id="pHll5_dqEuGhhgP8Clkl-32" value="" style="endArrow=classic;html=1;rounded=0;exitX=1;exitY=0.25;exitDx=0;exitDy=0;entryX=0;entryY=0.5;entryDx=0;entryDy=0;fillColor=#d5e8d4;strokeColor=#82b366;" parent="1" source="pHll5_dqEuGhhgP8Clkl-13" target="pHll5_dqEuGhhgP8Clkl-33" edge="1">
          <mxGeometry width="50" height="50" relative="1" as="geometry">
            <mxPoint x="540" y="99.55000000000001" as="sourcePoint" />
            <mxPoint x="600" y="99.55000000000001" as="targetPoint" />
            <Array as="points">
              <mxPoint x="580" y="170" />
              <mxPoint x="580" y="100" />
            </Array>
          </mxGeometry>
        </mxCell>
        <mxCell id="pHll5_dqEuGhhgP8Clkl-33" value="MTH 333" style="rounded=0;whiteSpace=wrap;html=1;fillColor=#d5e8d4;strokeColor=#82b366;" parent="1" vertex="1">
          <mxGeometry x="640" y="80" width="60" height="40" as="geometry" />
        </mxCell>
        <mxCell id="pHll5_dqEuGhhgP8Clkl-34" value="ENGR 100" style="rounded=0;whiteSpace=wrap;html=1;fillColor=#d5e8d4;strokeColor=#82b366;" parent="1" vertex="1">
          <mxGeometry x="120" y="240" width="60" height="40" as="geometry" />
        </mxCell>
        <mxCell id="pHll5_dqEuGhhgP8Clkl-35" value="ENGR 102" style="rounded=0;whiteSpace=wrap;html=1;fillColor=#d5e8d4;strokeColor=#82b366;" parent="1" vertex="1">
          <mxGeometry x="120" y="400" width="60" height="40" as="geometry" />
        </mxCell>
        <mxCell id="pHll5_dqEuGhhgP8Clkl-36" value="ENGR 103" style="rounded=0;whiteSpace=wrap;html=1;fillColor=#D5E8D4;strokeColor=#82B366;" parent="1" vertex="1">
          <mxGeometry x="120" y="480" width="60" height="40" as="geometry" />
        </mxCell>
        <mxCell id="pHll5_dqEuGhhgP8Clkl-37" value="" style="endArrow=classic;html=1;rounded=0;exitX=0.5;exitY=1;exitDx=0;exitDy=0;entryX=0.5;entryY=0;entryDx=0;entryDy=0;fillColor=#d5e8d4;strokeColor=#82b366;" parent="1" source="pHll5_dqEuGhhgP8Clkl-34" target="pHll5_dqEuGhhgP8Clkl-35" edge="1">
          <mxGeometry width="50" height="50" relative="1" as="geometry">
            <mxPoint x="240" y="330" as="sourcePoint" />
            <mxPoint x="290" y="280" as="targetPoint" />
          </mxGeometry>
        </mxCell>
        <mxCell id="pHll5_dqEuGhhgP8Clkl-38" value="" style="endArrow=classic;html=1;rounded=0;exitX=0.5;exitY=1;exitDx=0;exitDy=0;entryX=0.5;entryY=0;entryDx=0;entryDy=0;fillColor=#d5e8d4;strokeColor=#82b366;" parent="1" source="pHll5_dqEuGhhgP8Clkl-35" target="pHll5_dqEuGhhgP8Clkl-36" edge="1">
          <mxGeometry width="50" height="50" relative="1" as="geometry">
            <mxPoint x="180" y="410" as="sourcePoint" />
            <mxPoint x="180" y="450" as="targetPoint" />
          </mxGeometry>
        </mxCell>
        <mxCell id="pHll5_dqEuGhhgP8Clkl-39" value="" style="endArrow=classic;html=1;rounded=0;exitX=0.5;exitY=1;exitDx=0;exitDy=0;entryX=0.5;entryY=0;entryDx=0;entryDy=0;fillColor=#d5e8d4;strokeColor=#82b366;" parent="1" source="pHll5_dqEuGhhgP8Clkl-36" target="pHll5_dqEuGhhgP8Clkl-2" edge="1">
          <mxGeometry width="50" height="50" relative="1" as="geometry">
            <mxPoint x="180" y="500" as="sourcePoint" />
            <mxPoint x="180" y="540" as="targetPoint" />
          </mxGeometry>
        </mxCell>
        <mxCell id="pHll5_dqEuGhhgP8Clkl-40" value="" style="edgeStyle=orthogonalEdgeStyle;rounded=0;orthogonalLoop=1;jettySize=auto;html=1;fillColor=#d5e8d4;strokeColor=#82b366;" parent="1" source="pHll5_dqEuGhhgP8Clkl-41" target="pHll5_dqEuGhhgP8Clkl-47" edge="1">
          <mxGeometry relative="1" as="geometry" />
        </mxCell>
        <mxCell id="pHll5_dqEuGhhgP8Clkl-41" value="CS 290" style="rounded=0;whiteSpace=wrap;html=1;fillColor=#d5e8d4;strokeColor=#82b366;" parent="1" vertex="1">
          <mxGeometry x="120" y="640" width="60" height="40" as="geometry" />
        </mxCell>
        <mxCell id="pHll5_dqEuGhhgP8Clkl-42" value="CS 261" style="rounded=0;whiteSpace=wrap;html=1;fillColor=#d5e8d4;strokeColor=#82b366;" parent="1" vertex="1">
          <mxGeometry x="240" y="560" width="60" height="40" as="geometry" />
        </mxCell>
        <mxCell id="pHll5_dqEuGhhgP8Clkl-43" value="" style="endArrow=classic;html=1;rounded=0;exitX=0.5;exitY=1;exitDx=0;exitDy=0;entryX=0;entryY=0.5;entryDx=0;entryDy=0;fillColor=#d5e8d4;strokeColor=#82b366;" parent="1" edge="1">
          <mxGeometry width="50" height="50" relative="1" as="geometry">
            <mxPoint x="180" y="579.55" as="sourcePoint" />
            <mxPoint x="240" y="579.55" as="targetPoint" />
          </mxGeometry>
        </mxCell>
        <mxCell id="pHll5_dqEuGhhgP8Clkl-44" value="" style="endArrow=classic;html=1;rounded=0;exitDx=0;exitDy=0;entryX=0;entryY=0.5;entryDx=0;entryDy=0;fillColor=#d5e8d4;strokeColor=#82b366;" parent="1" source="pHll5_dqEuGhhgP8Clkl-140" target="pHll5_dqEuGhhgP8Clkl-4" edge="1">
          <mxGeometry width="50" height="50" relative="1" as="geometry">
            <mxPoint x="180" y="179.55" as="sourcePoint" />
            <mxPoint x="240" y="179.55" as="targetPoint" />
            <Array as="points">
              <mxPoint x="200" y="180" />
              <mxPoint x="200" y="420" />
            </Array>
          </mxGeometry>
        </mxCell>
        <mxCell id="pHll5_dqEuGhhgP8Clkl-45" value="ECE 375" style="rounded=0;whiteSpace=wrap;html=1;fillColor=#D5E8D4;strokeColor=#82B366;" parent="1" vertex="1">
          <mxGeometry x="360" y="320" width="60" height="40" as="geometry" />
        </mxCell>
        <mxCell id="pHll5_dqEuGhhgP8Clkl-46" value="MTH 231" style="rounded=0;whiteSpace=wrap;html=1;fillColor=#d5e8d4;strokeColor=#82b366;" parent="1" vertex="1">
          <mxGeometry x="240" y="640" width="60" height="40" as="geometry" />
        </mxCell>
        <mxCell id="pHll5_dqEuGhhgP8Clkl-47" value="&lt;div&gt;CS 340&lt;/div&gt;" style="rounded=0;whiteSpace=wrap;html=1;fillColor=#ffe6cc;strokeColor=#d79b00;" parent="1" vertex="1">
          <mxGeometry x="120" y="720" width="60" height="40" as="geometry" />
        </mxCell>
        <mxCell id="pHll5_dqEuGhhgP8Clkl-48" value="&lt;div&gt;CS 325&lt;/div&gt;" style="rounded=0;whiteSpace=wrap;html=1;fillColor=#D5E8D4;strokeColor=#82B366;" parent="1" vertex="1">
          <mxGeometry x="360" y="640" width="60" height="40" as="geometry" />
        </mxCell>
        <mxCell id="pHll5_dqEuGhhgP8Clkl-49" value="" style="edgeStyle=orthogonalEdgeStyle;rounded=0;orthogonalLoop=1;jettySize=auto;html=1;" parent="1" source="pHll5_dqEuGhhgP8Clkl-50" target="pHll5_dqEuGhhgP8Clkl-55" edge="1">
          <mxGeometry relative="1" as="geometry">
            <Array as="points">
              <mxPoint x="470" y="590" />
              <mxPoint x="470" y="590" />
            </Array>
          </mxGeometry>
        </mxCell>
        <mxCell id="pHll5_dqEuGhhgP8Clkl-50" value="&lt;div&gt;CS 374&lt;/div&gt;" style="rounded=0;whiteSpace=wrap;html=1;fillColor=#ffe6cc;strokeColor=#d79b00;" parent="1" vertex="1">
          <mxGeometry x="360" y="560" width="60" height="40" as="geometry" />
        </mxCell>
        <mxCell id="pHll5_dqEuGhhgP8Clkl-51" value="" style="endArrow=classic;html=1;rounded=0;exitDx=0;exitDy=0;entryX=0;entryY=0.25;entryDx=0;entryDy=0;fillColor=#d5e8d4;strokeColor=#82b366;" parent="1" source="pHll5_dqEuGhhgP8Clkl-167" target="pHll5_dqEuGhhgP8Clkl-50" edge="1">
          <mxGeometry width="50" height="50" relative="1" as="geometry">
            <mxPoint x="300" y="420" as="sourcePoint" />
            <mxPoint x="360" y="500.45000000000005" as="targetPoint" />
            <Array as="points">
              <mxPoint x="340" y="420" />
              <mxPoint x="340" y="570" />
            </Array>
          </mxGeometry>
        </mxCell>
        <mxCell id="pHll5_dqEuGhhgP8Clkl-52" value="" style="endArrow=classic;html=1;rounded=0;entryX=0;entryY=0.75;entryDx=0;entryDy=0;fillColor=#d5e8d4;strokeColor=#82b366;" parent="1" target="pHll5_dqEuGhhgP8Clkl-50" edge="1">
          <mxGeometry width="50" height="50" relative="1" as="geometry">
            <mxPoint x="300" y="590" as="sourcePoint" />
            <mxPoint x="580" y="490" as="targetPoint" />
            <Array as="points">
              <mxPoint x="340" y="590" />
            </Array>
          </mxGeometry>
        </mxCell>
        <mxCell id="pHll5_dqEuGhhgP8Clkl-53" value="&lt;div&gt;CS 361&lt;/div&gt;" style="rounded=0;whiteSpace=wrap;html=1;fillColor=#ffe6cc;strokeColor=#d79b00;" parent="1" vertex="1">
          <mxGeometry x="360" y="720" width="60" height="40" as="geometry" />
        </mxCell>
        <mxCell id="pHll5_dqEuGhhgP8Clkl-54" value="&lt;div&gt;CS 362&lt;/div&gt;" style="rounded=0;whiteSpace=wrap;html=1;fillColor=#ffe6cc;strokeColor=#d79b00;" parent="1" vertex="1">
          <mxGeometry x="360" y="800" width="60" height="40" as="geometry" />
        </mxCell>
        <mxCell id="pHll5_dqEuGhhgP8Clkl-55" value="CS 474" style="whiteSpace=wrap;html=1;rounded=0;" parent="1" vertex="1">
          <mxGeometry x="480" y="560" width="60" height="40" as="geometry" />
        </mxCell>
        <mxCell id="pHll5_dqEuGhhgP8Clkl-56" value="" style="edgeStyle=orthogonalEdgeStyle;rounded=0;orthogonalLoop=1;jettySize=auto;html=1;entryX=0;entryY=0.25;entryDx=0;entryDy=0;exitDx=0;exitDy=0;strokeColor=#82B366;" parent="1" source="pHll5_dqEuGhhgP8Clkl-141" target="pHll5_dqEuGhhgP8Clkl-55" edge="1">
          <mxGeometry relative="1" as="geometry">
            <mxPoint x="440" y="430" as="sourcePoint" />
            <mxPoint x="490" y="590" as="targetPoint" />
            <Array as="points">
              <mxPoint x="440" y="340" />
              <mxPoint x="440" y="570" />
            </Array>
          </mxGeometry>
        </mxCell>
        <mxCell id="pHll5_dqEuGhhgP8Clkl-57" value="" style="endArrow=classic;html=1;rounded=0;exitX=0.5;exitY=0;exitDx=0;exitDy=0;entryX=0.5;entryY=1;entryDx=0;entryDy=0;fillColor=#d5e8d4;strokeColor=#82b366;" parent="1" source="pHll5_dqEuGhhgP8Clkl-46" target="pHll5_dqEuGhhgP8Clkl-42" edge="1">
          <mxGeometry width="50" height="50" relative="1" as="geometry">
            <mxPoint x="420" y="630" as="sourcePoint" />
            <mxPoint x="470" y="580" as="targetPoint" />
          </mxGeometry>
        </mxCell>
        <mxCell id="pHll5_dqEuGhhgP8Clkl-58" value="" style="edgeStyle=orthogonalEdgeStyle;rounded=0;orthogonalLoop=1;jettySize=auto;html=1;" parent="1" source="pHll5_dqEuGhhgP8Clkl-59" target="pHll5_dqEuGhhgP8Clkl-127" edge="1">
          <mxGeometry relative="1" as="geometry" />
        </mxCell>
        <mxCell id="pHll5_dqEuGhhgP8Clkl-59" value="&lt;div&gt;CS 372&lt;/div&gt;" style="rounded=0;whiteSpace=wrap;html=1;fillColor=#ffe6cc;strokeColor=#d79b00;" parent="1" vertex="1">
          <mxGeometry x="360" y="480" width="60" height="40" as="geometry" />
        </mxCell>
        <mxCell id="pHll5_dqEuGhhgP8Clkl-60" value="" style="endArrow=classic;html=1;rounded=0;entryX=0;entryY=0.75;entryDx=0;entryDy=0;fillColor=#d5e8d4;strokeColor=#82b366;" parent="1" target="pHll5_dqEuGhhgP8Clkl-59" edge="1">
          <mxGeometry width="50" height="50" relative="1" as="geometry">
            <mxPoint x="320" y="590" as="sourcePoint" />
            <mxPoint x="360" y="590" as="targetPoint" />
            <Array as="points">
              <mxPoint x="320" y="510" />
            </Array>
          </mxGeometry>
        </mxCell>
        <mxCell id="pHll5_dqEuGhhgP8Clkl-61" value="" style="edgeStyle=orthogonalEdgeStyle;rounded=0;orthogonalLoop=1;jettySize=auto;html=1;" parent="1" source="pHll5_dqEuGhhgP8Clkl-62" target="pHll5_dqEuGhhgP8Clkl-71" edge="1">
          <mxGeometry relative="1" as="geometry" />
        </mxCell>
        <mxCell id="pHll5_dqEuGhhgP8Clkl-62" value="&lt;div&gt;CS 381&lt;/div&gt;" style="rounded=0;whiteSpace=wrap;html=1;fillColor=#ffe6cc;strokeColor=#d79b00;" parent="1" vertex="1">
          <mxGeometry x="360" y="880" width="60" height="40" as="geometry" />
        </mxCell>
        <mxCell id="pHll5_dqEuGhhgP8Clkl-63" value="&lt;div&gt;CS 391&lt;/div&gt;" style="rounded=0;whiteSpace=wrap;html=1;fillColor=#ffe6cc;strokeColor=#d79b00;" parent="1" vertex="1">
          <mxGeometry x="240" y="720" width="60" height="40" as="geometry" />
        </mxCell>
        <mxCell id="pHll5_dqEuGhhgP8Clkl-64" value="&lt;div&gt;ST 314&lt;br&gt;&lt;/div&gt;" style="rounded=0;whiteSpace=wrap;html=1;fillColor=#d5e8d4;strokeColor=#82b366;" parent="1" vertex="1">
          <mxGeometry x="240" y="800" width="60" height="40" as="geometry" />
        </mxCell>
        <mxCell id="pHll5_dqEuGhhgP8Clkl-65" value="WR 121" style="rounded=0;whiteSpace=wrap;html=1;fillColor=#d5e8d4;strokeColor=#82b366;" parent="1" vertex="1">
          <mxGeometry x="240" y="880" width="60" height="40" as="geometry" />
        </mxCell>
        <mxCell id="pHll5_dqEuGhhgP8Clkl-66" value="&lt;div&gt;CS 321&lt;/div&gt;" style="rounded=0;whiteSpace=wrap;html=1;fillColor=#ffe6cc;strokeColor=#d79b00;" parent="1" vertex="1">
          <mxGeometry x="360" y="960" width="60" height="40" as="geometry" />
        </mxCell>
        <mxCell id="pHll5_dqEuGhhgP8Clkl-67" value="CS 370" style="whiteSpace=wrap;html=1;rounded=0;" parent="1" vertex="1">
          <mxGeometry x="480" y="640" width="60" height="40" as="geometry" />
        </mxCell>
        <mxCell id="daSiZoFIKa-qaUZPSzsP-2" value="" style="edgeStyle=orthogonalEdgeStyle;rounded=0;orthogonalLoop=1;jettySize=auto;html=1;" parent="1" source="pHll5_dqEuGhhgP8Clkl-69" target="daSiZoFIKa-qaUZPSzsP-1" edge="1">
          <mxGeometry relative="1" as="geometry" />
        </mxCell>
        <mxCell id="pHll5_dqEuGhhgP8Clkl-69" value="CS 472" style="whiteSpace=wrap;html=1;rounded=0;fillColor=#FFE6CC;strokeColor=#D79B00;" parent="1" vertex="1">
          <mxGeometry x="480" y="480" width="60" height="40" as="geometry" />
        </mxCell>
        <mxCell id="pHll5_dqEuGhhgP8Clkl-70" value="" style="edgeStyle=orthogonalEdgeStyle;rounded=0;orthogonalLoop=1;jettySize=auto;html=1;entryX=0;entryY=0.5;entryDx=0;entryDy=0;exitX=1;exitY=0.5;exitDx=0;exitDy=0;fillColor=#FFE6CC;strokeColor=#82B366;" parent="1" source="pHll5_dqEuGhhgP8Clkl-45" target="pHll5_dqEuGhhgP8Clkl-69" edge="1">
          <mxGeometry relative="1" as="geometry">
            <mxPoint x="420" y="420" as="sourcePoint" />
            <mxPoint x="480" y="570" as="targetPoint" />
            <Array as="points">
              <mxPoint x="440" y="340" />
              <mxPoint x="440" y="500" />
            </Array>
          </mxGeometry>
        </mxCell>
        <mxCell id="pHll5_dqEuGhhgP8Clkl-71" value="&lt;div&gt;CS 480&lt;/div&gt;" style="rounded=0;whiteSpace=wrap;html=1;" parent="1" vertex="1">
          <mxGeometry x="480" y="880" width="60" height="40" as="geometry" />
        </mxCell>
        <mxCell id="pHll5_dqEuGhhgP8Clkl-72" value="" style="edgeStyle=orthogonalEdgeStyle;rounded=0;orthogonalLoop=1;jettySize=auto;html=1;exitX=1;exitY=0.5;exitDx=0;exitDy=0;entryX=0;entryY=1;entryDx=0;entryDy=0;" parent="1" source="pHll5_dqEuGhhgP8Clkl-66" target="pHll5_dqEuGhhgP8Clkl-71" edge="1">
          <mxGeometry relative="1" as="geometry">
            <mxPoint x="430" y="910" as="sourcePoint" />
            <mxPoint x="490" y="910" as="targetPoint" />
            <Array as="points">
              <mxPoint x="440" y="980" />
              <mxPoint x="440" y="920" />
            </Array>
          </mxGeometry>
        </mxCell>
        <mxCell id="pHll5_dqEuGhhgP8Clkl-73" value="" style="edgeStyle=orthogonalEdgeStyle;rounded=0;orthogonalLoop=1;jettySize=auto;html=1;entryX=0;entryY=0;entryDx=0;entryDy=0;" parent="1" source="pHll5_dqEuGhhgP8Clkl-161" target="pHll5_dqEuGhhgP8Clkl-71" edge="1">
          <mxGeometry relative="1" as="geometry">
            <mxPoint x="420" y="589.090909090909" as="sourcePoint" />
            <mxPoint x="490" y="910" as="targetPoint" />
            <Array as="points">
              <mxPoint x="440" y="589" />
              <mxPoint x="440" y="880" />
            </Array>
          </mxGeometry>
        </mxCell>
        <mxCell id="3y0I9gLtBBAWx4bMKy_n-6" value="" style="edgeStyle=orthogonalEdgeStyle;rounded=0;orthogonalLoop=1;jettySize=auto;html=1;" parent="1" source="pHll5_dqEuGhhgP8Clkl-74" target="3y0I9gLtBBAWx4bMKy_n-5" edge="1">
          <mxGeometry relative="1" as="geometry" />
        </mxCell>
        <mxCell id="pHll5_dqEuGhhgP8Clkl-74" value="&lt;div&gt;MTH 411&lt;br&gt;&lt;/div&gt;" style="rounded=0;whiteSpace=wrap;html=1;fillColor=#FFE6CC;strokeColor=#D79B00;" parent="1" vertex="1">
          <mxGeometry x="880" y="240" width="60" height="40" as="geometry" />
        </mxCell>
        <mxCell id="pHll5_dqEuGhhgP8Clkl-75" value="" style="endArrow=classic;html=1;rounded=0;exitX=1;exitY=0.5;exitDx=0;exitDy=0;entryX=0;entryY=0.75;entryDx=0;entryDy=0;fillColor=#d5e8d4;strokeColor=#82b366;" parent="1" target="pHll5_dqEuGhhgP8Clkl-74" edge="1">
          <mxGeometry width="50" height="50" relative="1" as="geometry">
            <mxPoint x="540" y="260" as="sourcePoint" />
            <mxPoint x="600" y="340.45" as="targetPoint" />
            <Array as="points">
              <mxPoint x="560" y="260.45" />
              <mxPoint x="560" y="300" />
              <mxPoint x="840" y="300" />
              <mxPoint x="840" y="270" />
            </Array>
          </mxGeometry>
        </mxCell>
        <mxCell id="pHll5_dqEuGhhgP8Clkl-77" value="" style="edgeStyle=orthogonalEdgeStyle;rounded=0;orthogonalLoop=1;jettySize=auto;html=1;entryX=0;entryY=0.25;entryDx=0;entryDy=0;fillColor=#d5e8d4;strokeColor=#82b366;" parent="1" source="pHll5_dqEuGhhgP8Clkl-79" target="pHll5_dqEuGhhgP8Clkl-85" edge="1">
          <mxGeometry relative="1" as="geometry">
            <Array as="points">
              <mxPoint x="510" y="140" />
              <mxPoint x="600" y="140" />
              <mxPoint x="600" y="420" />
              <mxPoint x="640" y="420" />
            </Array>
          </mxGeometry>
        </mxCell>
        <mxCell id="pHll5_dqEuGhhgP8Clkl-79" value="MTH 256" style="rounded=0;whiteSpace=wrap;html=1;fillColor=#d5e8d4;strokeColor=#82b366;" parent="1" vertex="1">
          <mxGeometry x="480" y="80" width="60" height="40" as="geometry" />
        </mxCell>
        <mxCell id="pHll5_dqEuGhhgP8Clkl-80" value="" style="endArrow=classic;html=1;rounded=0;exitDx=0;exitDy=0;entryX=0;entryY=0.5;entryDx=0;entryDy=0;fillColor=#d5e8d4;strokeColor=#82b366;" parent="1" source="pHll5_dqEuGhhgP8Clkl-135" edge="1">
          <mxGeometry width="50" height="50" relative="1" as="geometry">
            <mxPoint x="420" y="100" as="sourcePoint" />
            <mxPoint x="480" y="100" as="targetPoint" />
            <Array as="points">
              <mxPoint x="460" y="100" />
            </Array>
          </mxGeometry>
        </mxCell>
        <mxCell id="pHll5_dqEuGhhgP8Clkl-85" value="MTH 480" style="rounded=0;whiteSpace=wrap;html=1;fillColor=#ffe6cc;strokeColor=#d79b00;" parent="1" vertex="1">
          <mxGeometry x="640" y="400" width="60" height="40" as="geometry" />
        </mxCell>
        <mxCell id="pHll5_dqEuGhhgP8Clkl-86" value="" style="endArrow=classic;html=1;rounded=0;exitDx=0;exitDy=0;entryX=0;entryY=0.75;entryDx=0;entryDy=0;fillColor=#d5e8d4;strokeColor=#82b366;" parent="1" source="pHll5_dqEuGhhgP8Clkl-137" target="pHll5_dqEuGhhgP8Clkl-85" edge="1">
          <mxGeometry width="50" height="50" relative="1" as="geometry">
            <mxPoint x="540" y="260" as="sourcePoint" />
            <mxPoint x="640" y="340.45" as="targetPoint" />
            <Array as="points">
              <mxPoint x="560" y="260.45" />
              <mxPoint x="560" y="430" />
            </Array>
          </mxGeometry>
        </mxCell>
        <mxCell id="pHll5_dqEuGhhgP8Clkl-87" value="" style="edgeStyle=orthogonalEdgeStyle;rounded=0;orthogonalLoop=1;jettySize=auto;html=1;fillColor=#d5e8d4;strokeColor=#82b366;" parent="1" source="pHll5_dqEuGhhgP8Clkl-88" target="pHll5_dqEuGhhgP8Clkl-90" edge="1">
          <mxGeometry relative="1" as="geometry" />
        </mxCell>
        <mxCell id="pHll5_dqEuGhhgP8Clkl-88" value="ENGR 201" style="rounded=0;whiteSpace=wrap;html=1;fillColor=#d5e8d4;strokeColor=#82b366;" parent="1" vertex="1">
          <mxGeometry x="360" y="-80" width="60" height="40" as="geometry" />
        </mxCell>
        <mxCell id="pHll5_dqEuGhhgP8Clkl-89" value="" style="edgeStyle=orthogonalEdgeStyle;rounded=0;orthogonalLoop=1;jettySize=auto;html=1;fillColor=#d5e8d4;strokeColor=#82b366;" parent="1" source="pHll5_dqEuGhhgP8Clkl-90" target="pHll5_dqEuGhhgP8Clkl-92" edge="1">
          <mxGeometry relative="1" as="geometry">
            <Array as="points">
              <mxPoint x="560" y="-70" />
              <mxPoint x="560" y="-70" />
            </Array>
          </mxGeometry>
        </mxCell>
        <mxCell id="pHll5_dqEuGhhgP8Clkl-90" value="ENGR 202" style="rounded=0;whiteSpace=wrap;html=1;fillColor=#d5e8d4;strokeColor=#82b366;" parent="1" vertex="1">
          <mxGeometry x="480" y="-80" width="60" height="40" as="geometry" />
        </mxCell>
        <mxCell id="pHll5_dqEuGhhgP8Clkl-91" value="" style="edgeStyle=orthogonalEdgeStyle;rounded=0;orthogonalLoop=1;jettySize=auto;html=1;fillColor=#d5e8d4;strokeColor=#82b366;" parent="1" source="pHll5_dqEuGhhgP8Clkl-92" target="pHll5_dqEuGhhgP8Clkl-99" edge="1">
          <mxGeometry relative="1" as="geometry" />
        </mxCell>
        <mxCell id="pHll5_dqEuGhhgP8Clkl-92" value="ENGR 203" style="rounded=0;whiteSpace=wrap;html=1;fillColor=#d5e8d4;strokeColor=#82b366;" parent="1" vertex="1">
          <mxGeometry x="640" y="-80" width="60" height="40" as="geometry" />
        </mxCell>
        <mxCell id="pHll5_dqEuGhhgP8Clkl-93" value="" style="endArrow=classic;html=1;rounded=0;exitX=1;exitY=0.5;exitDx=0;exitDy=0;entryX=0;entryY=0.75;entryDx=0;entryDy=0;fillColor=#d5e8d4;strokeColor=#82b366;" parent="1" source="pHll5_dqEuGhhgP8Clkl-79" target="pHll5_dqEuGhhgP8Clkl-92" edge="1">
          <mxGeometry width="50" height="50" relative="1" as="geometry">
            <mxPoint x="370" y="140" as="sourcePoint" />
            <mxPoint x="420" y="90" as="targetPoint" />
            <Array as="points">
              <mxPoint x="560" y="100" />
              <mxPoint x="560" y="-50" />
              <mxPoint x="600" y="-50" />
            </Array>
          </mxGeometry>
        </mxCell>
        <mxCell id="pHll5_dqEuGhhgP8Clkl-94" value="&lt;div&gt;CH 201&lt;/div&gt;=CLEP=" style="rounded=0;whiteSpace=wrap;html=1;fillColor=#e1d5e7;strokeColor=#9673a6;" parent="1" vertex="1">
          <mxGeometry x="240" y="-80" width="60" height="40" as="geometry" />
        </mxCell>
        <mxCell id="pHll5_dqEuGhhgP8Clkl-95" value="PH 212" style="rounded=0;whiteSpace=wrap;html=1;fillColor=#e1d5e7;strokeColor=#9673a6;" parent="1" vertex="1">
          <mxGeometry x="360" width="60" height="40" as="geometry" />
        </mxCell>
        <mxCell id="pHll5_dqEuGhhgP8Clkl-96" value="PH 213" style="rounded=0;whiteSpace=wrap;html=1;fillColor=#d5e8d4;strokeColor=#82b366;" parent="1" vertex="1">
          <mxGeometry x="480" width="60" height="40" as="geometry" />
        </mxCell>
        <mxCell id="pHll5_dqEuGhhgP8Clkl-97" value="" style="edgeStyle=orthogonalEdgeStyle;rounded=0;orthogonalLoop=1;jettySize=auto;html=1;strokeColor=#82B366;" parent="1" source="pHll5_dqEuGhhgP8Clkl-99" target="pHll5_dqEuGhhgP8Clkl-102" edge="1">
          <mxGeometry relative="1" as="geometry" />
        </mxCell>
        <mxCell id="pHll5_dqEuGhhgP8Clkl-98" value="" style="edgeStyle=orthogonalEdgeStyle;rounded=0;orthogonalLoop=1;jettySize=auto;html=1;strokeColor=#82B366;" parent="1" source="pHll5_dqEuGhhgP8Clkl-99" target="pHll5_dqEuGhhgP8Clkl-113" edge="1">
          <mxGeometry relative="1" as="geometry" />
        </mxCell>
        <mxCell id="pHll5_dqEuGhhgP8Clkl-99" value="ECE 322" style="rounded=0;whiteSpace=wrap;html=1;fillColor=#D5E8D4;strokeColor=#82B366;" parent="1" vertex="1">
          <mxGeometry x="760" y="-80" width="60" height="40" as="geometry" />
        </mxCell>
        <mxCell id="pHll5_dqEuGhhgP8Clkl-100" value="" style="edgeStyle=orthogonalEdgeStyle;rounded=0;orthogonalLoop=1;jettySize=auto;html=1;entryX=0;entryY=0.5;entryDx=0;entryDy=0;" parent="1" source="pHll5_dqEuGhhgP8Clkl-102" target="pHll5_dqEuGhhgP8Clkl-121" edge="1">
          <mxGeometry relative="1" as="geometry" />
        </mxCell>
        <mxCell id="pHll5_dqEuGhhgP8Clkl-101" value="" style="edgeStyle=orthogonalEdgeStyle;rounded=0;orthogonalLoop=1;jettySize=auto;html=1;" parent="1" source="pHll5_dqEuGhhgP8Clkl-164" target="pHll5_dqEuGhhgP8Clkl-119" edge="1">
          <mxGeometry relative="1" as="geometry" />
        </mxCell>
        <mxCell id="pHll5_dqEuGhhgP8Clkl-102" value="ECE 323" style="rounded=0;whiteSpace=wrap;html=1;fillColor=#E1D5E7;strokeColor=#9673A6;" parent="1" vertex="1">
          <mxGeometry x="880" y="-80" width="60" height="40" as="geometry" />
        </mxCell>
        <mxCell id="pHll5_dqEuGhhgP8Clkl-103" value="" style="edgeStyle=orthogonalEdgeStyle;rounded=0;orthogonalLoop=1;jettySize=auto;html=1;" parent="1" source="pHll5_dqEuGhhgP8Clkl-104" target="pHll5_dqEuGhhgP8Clkl-105" edge="1">
          <mxGeometry relative="1" as="geometry" />
        </mxCell>
        <mxCell id="pHll5_dqEuGhhgP8Clkl-104" value="ECE 341" style="rounded=0;whiteSpace=wrap;html=1;fillColor=#e1d5e7;strokeColor=#9673a6;" parent="1" vertex="1">
          <mxGeometry x="760" width="60" height="40" as="geometry" />
        </mxCell>
        <mxCell id="pHll5_dqEuGhhgP8Clkl-105" value="ECE 342" style="rounded=0;whiteSpace=wrap;html=1;fillColor=#dae8fc;strokeColor=#6c8ebf;" parent="1" vertex="1">
          <mxGeometry x="880" width="60" height="40" as="geometry" />
        </mxCell>
        <mxCell id="pHll5_dqEuGhhgP8Clkl-106" value="" style="edgeStyle=orthogonalEdgeStyle;rounded=0;orthogonalLoop=1;jettySize=auto;html=1;fillColor=#d5e8d4;strokeColor=#82b366;" parent="1" source="pHll5_dqEuGhhgP8Clkl-107" target="pHll5_dqEuGhhgP8Clkl-104" edge="1">
          <mxGeometry relative="1" as="geometry">
            <Array as="points">
              <mxPoint x="740" y="30" />
              <mxPoint x="740" y="30" />
            </Array>
          </mxGeometry>
        </mxCell>
        <mxCell id="pHll5_dqEuGhhgP8Clkl-107" value="CS 261" style="rounded=0;whiteSpace=wrap;html=1;fillColor=#d5e8d4;strokeColor=#82b366;" parent="1" vertex="1">
          <mxGeometry x="640" width="60" height="40" as="geometry" />
        </mxCell>
        <mxCell id="pHll5_dqEuGhhgP8Clkl-108" value="" style="edgeStyle=orthogonalEdgeStyle;rounded=0;orthogonalLoop=1;jettySize=auto;html=1;exitX=1;exitY=0.5;exitDx=0;exitDy=0;entryX=0;entryY=0.25;entryDx=0;entryDy=0;fillColor=#d5e8d4;strokeColor=#82b366;" parent="1" source="pHll5_dqEuGhhgP8Clkl-92" target="pHll5_dqEuGhhgP8Clkl-104" edge="1">
          <mxGeometry relative="1" as="geometry">
            <mxPoint x="710" y="-50" as="sourcePoint" />
            <mxPoint x="770" y="-50" as="targetPoint" />
            <Array as="points">
              <mxPoint x="720" y="-60" />
              <mxPoint x="720" y="10" />
            </Array>
          </mxGeometry>
        </mxCell>
        <mxCell id="pHll5_dqEuGhhgP8Clkl-109" value="" style="edgeStyle=orthogonalEdgeStyle;rounded=0;orthogonalLoop=1;jettySize=auto;html=1;strokeColor=#82B366;" parent="1" source="pHll5_dqEuGhhgP8Clkl-110" target="pHll5_dqEuGhhgP8Clkl-112" edge="1">
          <mxGeometry relative="1" as="geometry" />
        </mxCell>
        <mxCell id="pHll5_dqEuGhhgP8Clkl-110" value="ECE 351" style="rounded=0;whiteSpace=wrap;html=1;fillColor=#D5E8D4;strokeColor=#82B366;" parent="1" vertex="1">
          <mxGeometry x="760" y="-320" width="60" height="40" as="geometry" />
        </mxCell>
        <mxCell id="pHll5_dqEuGhhgP8Clkl-111" value="" style="edgeStyle=orthogonalEdgeStyle;rounded=0;orthogonalLoop=1;jettySize=auto;html=1;exitDx=0;exitDy=0;entryX=0;entryY=0.5;entryDx=0;entryDy=0;fillColor=#d5e8d4;strokeColor=#82b366;" parent="1" source="pHll5_dqEuGhhgP8Clkl-162" target="pHll5_dqEuGhhgP8Clkl-110" edge="1">
          <mxGeometry relative="1" as="geometry">
            <mxPoint x="700" y="-60" as="sourcePoint" />
            <mxPoint x="760" y="10" as="targetPoint" />
            <Array as="points">
              <mxPoint x="720" y="-60" />
              <mxPoint x="720" y="-300" />
            </Array>
          </mxGeometry>
        </mxCell>
        <mxCell id="pHll5_dqEuGhhgP8Clkl-112" value="ECE 352" style="rounded=0;whiteSpace=wrap;html=1;fillColor=#e1d5e7;strokeColor=#9673a6;" parent="1" vertex="1">
          <mxGeometry x="880" y="-320" width="60" height="40" as="geometry" />
        </mxCell>
        <mxCell id="pHll5_dqEuGhhgP8Clkl-113" value="ECE 391" style="rounded=0;whiteSpace=wrap;html=1;fillColor=#e1d5e7;strokeColor=#9673a6;" parent="1" vertex="1">
          <mxGeometry x="760" y="-240" width="60" height="40" as="geometry" />
        </mxCell>
        <mxCell id="pHll5_dqEuGhhgP8Clkl-114" value="CSGI" style="rounded=0;whiteSpace=wrap;html=1;fillColor=#ffe6cc;strokeColor=#d79b00;" parent="1" vertex="1">
          <mxGeometry x="120" y="800" width="60" height="40" as="geometry" />
        </mxCell>
        <mxCell id="pHll5_dqEuGhhgP8Clkl-116" value="ECE 473" style="rounded=0;whiteSpace=wrap;html=1;fillColor=#E1D5E7;strokeColor=#9673A6;" parent="1" vertex="1">
          <mxGeometry x="880" y="-160" width="60" height="40" as="geometry" />
        </mxCell>
        <mxCell id="pHll5_dqEuGhhgP8Clkl-117" value="ECE 353" style="rounded=0;whiteSpace=wrap;html=1;fillColor=#e1d5e7;strokeColor=#9673a6;" parent="1" vertex="1">
          <mxGeometry x="880" y="-240" width="60" height="40" as="geometry" />
        </mxCell>
        <mxCell id="pHll5_dqEuGhhgP8Clkl-118" value="" style="edgeStyle=orthogonalEdgeStyle;rounded=0;orthogonalLoop=1;jettySize=auto;html=1;entryX=0;entryY=0.5;entryDx=0;entryDy=0;strokeColor=#82B366;" parent="1" source="pHll5_dqEuGhhgP8Clkl-165" target="pHll5_dqEuGhhgP8Clkl-117" edge="1">
          <mxGeometry relative="1" as="geometry">
            <mxPoint x="820" y="-300" as="sourcePoint" />
            <mxPoint x="880" y="-300" as="targetPoint" />
            <Array as="points">
              <mxPoint x="840" y="-300" />
              <mxPoint x="840" y="-220" />
            </Array>
          </mxGeometry>
        </mxCell>
        <mxCell id="pHll5_dqEuGhhgP8Clkl-119" value="ECE 474" style="rounded=0;whiteSpace=wrap;html=1;fillColor=#dae8fc;strokeColor=#6c8ebf;" parent="1" vertex="1">
          <mxGeometry x="1000" y="-80" width="60" height="40" as="geometry" />
        </mxCell>
        <mxCell id="pHll5_dqEuGhhgP8Clkl-120" value="" style="edgeStyle=orthogonalEdgeStyle;rounded=0;orthogonalLoop=1;jettySize=auto;html=1;" parent="1" source="pHll5_dqEuGhhgP8Clkl-121" target="pHll5_dqEuGhhgP8Clkl-122" edge="1">
          <mxGeometry relative="1" as="geometry" />
        </mxCell>
        <mxCell id="pHll5_dqEuGhhgP8Clkl-121" value="ECE 422" style="rounded=0;whiteSpace=wrap;html=1;fillColor=#dae8fc;strokeColor=#6c8ebf;" parent="1" vertex="1">
          <mxGeometry x="1000" y="-240" width="60" height="40" as="geometry" />
        </mxCell>
        <mxCell id="pHll5_dqEuGhhgP8Clkl-122" value="ECE 423" style="rounded=0;whiteSpace=wrap;html=1;fillColor=#dae8fc;strokeColor=#6c8ebf;" parent="1" vertex="1">
          <mxGeometry x="1120" y="-240" width="60" height="40" as="geometry" />
        </mxCell>
        <mxCell id="pHll5_dqEuGhhgP8Clkl-123" value="ECE 477" style="rounded=0;whiteSpace=wrap;html=1;fillColor=#e1d5e7;strokeColor=#9673a6;" parent="1" vertex="1">
          <mxGeometry x="1000" width="60" height="40" as="geometry" />
        </mxCell>
        <mxCell id="pHll5_dqEuGhhgP8Clkl-124" value="ECE 468" style="rounded=0;whiteSpace=wrap;html=1;fillColor=#dae8fc;strokeColor=#6c8ebf;" parent="1" vertex="1">
          <mxGeometry x="1000" y="-320" width="60" height="40" as="geometry" />
        </mxCell>
        <mxCell id="pHll5_dqEuGhhgP8Clkl-125" value="" style="edgeStyle=orthogonalEdgeStyle;rounded=0;orthogonalLoop=1;jettySize=auto;html=1;entryX=0;entryY=0.5;entryDx=0;entryDy=0;" parent="1" target="pHll5_dqEuGhhgP8Clkl-124" edge="1">
          <mxGeometry relative="1" as="geometry">
            <mxPoint x="940" y="-300" as="sourcePoint" />
            <mxPoint x="1000" y="-220" as="targetPoint" />
            <Array as="points">
              <mxPoint x="980" y="-300" />
              <mxPoint x="980" y="-300" />
            </Array>
          </mxGeometry>
        </mxCell>
        <mxCell id="pHll5_dqEuGhhgP8Clkl-126" value="" style="edgeStyle=orthogonalEdgeStyle;rounded=0;orthogonalLoop=1;jettySize=auto;html=1;entryX=0;entryY=0.5;entryDx=0;entryDy=0;strokeColor=#82B366;" parent="1" target="pHll5_dqEuGhhgP8Clkl-116" edge="1">
          <mxGeometry relative="1" as="geometry">
            <mxPoint x="820" y="-60.5" as="sourcePoint" />
            <mxPoint x="880" y="-60.5" as="targetPoint" />
            <Array as="points">
              <mxPoint x="840" y="-60" />
              <mxPoint x="840" y="-140" />
            </Array>
          </mxGeometry>
        </mxCell>
        <mxCell id="pHll5_dqEuGhhgP8Clkl-127" value="CS/ECE 476" style="whiteSpace=wrap;html=1;rounded=0;" parent="1" vertex="1">
          <mxGeometry x="360" y="400" width="60" height="40" as="geometry" />
        </mxCell>
        <mxCell id="pHll5_dqEuGhhgP8Clkl-128" value="CS 475" style="whiteSpace=wrap;html=1;rounded=0;fillColor=#ffe6cc;strokeColor=#d79b00;" parent="1" vertex="1">
          <mxGeometry x="360" y="1040" width="60" height="40" as="geometry" />
        </mxCell>
        <mxCell id="pHll5_dqEuGhhgP8Clkl-129" value="CS 450" style="whiteSpace=wrap;html=1;rounded=0;fillColor=#ffe6cc;strokeColor=#d79b00;" parent="1" vertex="1">
          <mxGeometry x="360" y="1200" width="60" height="40" as="geometry" />
        </mxCell>
        <mxCell id="pHll5_dqEuGhhgP8Clkl-130" value="CS 457" style="whiteSpace=wrap;html=1;rounded=0;fillColor=#ffe6cc;strokeColor=#d79b00;" parent="1" vertex="1">
          <mxGeometry x="360" y="1120" width="60" height="40" as="geometry" />
        </mxCell>
        <mxCell id="pHll5_dqEuGhhgP8Clkl-131" value="" style="endArrow=classic;html=1;rounded=0;entryX=0;entryY=0.5;entryDx=0;entryDy=0;exitDx=0;exitDy=0;fillColor=#d5e8d4;strokeColor=#82b366;" parent="1" source="pHll5_dqEuGhhgP8Clkl-151" target="pHll5_dqEuGhhgP8Clkl-128" edge="1">
          <mxGeometry width="50" height="50" relative="1" as="geometry">
            <mxPoint x="300" y="580" as="sourcePoint" />
            <mxPoint x="360" y="980" as="targetPoint" />
            <Array as="points">
              <mxPoint x="320" y="590" />
              <mxPoint x="320" y="1060" />
            </Array>
          </mxGeometry>
        </mxCell>
        <mxCell id="pHll5_dqEuGhhgP8Clkl-132" value="" style="endArrow=classic;html=1;rounded=0;entryDx=0;entryDy=0;fillColor=#d5e8d4;strokeColor=#82b366;" parent="1" target="pHll5_dqEuGhhgP8Clkl-133" edge="1">
          <mxGeometry width="50" height="50" relative="1" as="geometry">
            <mxPoint x="320" y="180" as="sourcePoint" />
            <mxPoint x="360" y="260" as="targetPoint" />
            <Array as="points" />
          </mxGeometry>
        </mxCell>
        <mxCell id="pHll5_dqEuGhhgP8Clkl-133" value="" style="shape=waypoint;sketch=0;fillStyle=solid;size=6;pointerEvents=1;points=[];fillColor=#d5e8d4;resizable=0;rotatable=0;perimeter=centerPerimeter;snapToPoint=1;strokeColor=#82b366;" parent="1" vertex="1">
          <mxGeometry x="310" y="170" width="20" height="20" as="geometry" />
        </mxCell>
        <mxCell id="pHll5_dqEuGhhgP8Clkl-134" value="" style="shape=waypoint;sketch=0;fillStyle=solid;size=6;pointerEvents=1;points=[];fillColor=#d5e8d4;resizable=0;rotatable=0;perimeter=centerPerimeter;snapToPoint=1;strokeColor=#82b366;" parent="1" vertex="1">
          <mxGeometry x="450" y="250" width="20" height="20" as="geometry" />
        </mxCell>
        <mxCell id="pHll5_dqEuGhhgP8Clkl-135" value="" style="shape=waypoint;sketch=0;fillStyle=solid;size=6;pointerEvents=1;points=[];fillColor=#d5e8d4;resizable=0;rotatable=0;perimeter=centerPerimeter;snapToPoint=1;strokeColor=#82b366;" parent="1" vertex="1">
          <mxGeometry x="450" y="210" width="20" height="20" as="geometry" />
        </mxCell>
        <mxCell id="pHll5_dqEuGhhgP8Clkl-136" value="" style="shape=waypoint;sketch=0;fillStyle=solid;size=6;pointerEvents=1;points=[];fillColor=#d5e8d4;resizable=0;rotatable=0;perimeter=centerPerimeter;snapToPoint=1;strokeColor=#82b366;" parent="1" vertex="1">
          <mxGeometry x="550" y="250" width="20" height="20" as="geometry" />
        </mxCell>
        <mxCell id="pHll5_dqEuGhhgP8Clkl-137" value="" style="shape=waypoint;sketch=0;fillStyle=solid;size=6;pointerEvents=1;points=[];fillColor=#d5e8d4;resizable=0;rotatable=0;perimeter=centerPerimeter;snapToPoint=1;strokeColor=#82b366;" parent="1" vertex="1">
          <mxGeometry x="550" y="290" width="20" height="20" as="geometry" />
        </mxCell>
        <mxCell id="pHll5_dqEuGhhgP8Clkl-138" value="" style="shape=waypoint;sketch=0;fillStyle=solid;size=6;pointerEvents=1;points=[];fillColor=#d5e8d4;resizable=0;rotatable=0;perimeter=centerPerimeter;snapToPoint=1;strokeColor=#82b366;" parent="1" vertex="1">
          <mxGeometry x="550" y="330" width="20" height="20" as="geometry" />
        </mxCell>
        <mxCell id="pHll5_dqEuGhhgP8Clkl-139" value="" style="shape=waypoint;sketch=0;fillStyle=solid;size=6;pointerEvents=1;points=[];fillColor=#d5e8d4;resizable=0;rotatable=0;perimeter=centerPerimeter;snapToPoint=1;strokeColor=#82B366;" parent="1" vertex="1">
          <mxGeometry x="570" y="160" width="20" height="20" as="geometry" />
        </mxCell>
        <mxCell id="pHll5_dqEuGhhgP8Clkl-140" value="" style="shape=waypoint;sketch=0;fillStyle=solid;size=6;pointerEvents=1;points=[];fillColor=#d5e8d4;resizable=0;rotatable=0;perimeter=centerPerimeter;snapToPoint=1;strokeColor=#82b366;" parent="1" vertex="1">
          <mxGeometry x="190" y="170" width="20" height="20" as="geometry" />
        </mxCell>
        <mxCell id="pHll5_dqEuGhhgP8Clkl-141" value="" style="shape=waypoint;sketch=0;fillStyle=solid;size=6;pointerEvents=1;points=[];resizable=0;rotatable=0;perimeter=centerPerimeter;snapToPoint=1;strokeColor=#82B366;" parent="1" vertex="1">
          <mxGeometry x="430" y="490" width="20" height="20" as="geometry" />
        </mxCell>
        <mxCell id="pHll5_dqEuGhhgP8Clkl-142" value="" style="shape=waypoint;sketch=0;fillStyle=solid;size=6;pointerEvents=1;points=[];resizable=0;rotatable=0;perimeter=centerPerimeter;snapToPoint=1;fillColor=#d5e8d4;strokeColor=#82b366;" parent="1" vertex="1">
          <mxGeometry x="310" y="650" width="20" height="20" as="geometry" />
        </mxCell>
        <mxCell id="pHll5_dqEuGhhgP8Clkl-143" value="" style="shape=waypoint;sketch=0;fillStyle=solid;size=6;pointerEvents=1;points=[];resizable=0;rotatable=0;perimeter=centerPerimeter;snapToPoint=1;fillColor=#d5e8d4;strokeColor=#82b366;" parent="1" vertex="1">
          <mxGeometry x="310" y="730" width="20" height="20" as="geometry" />
        </mxCell>
        <mxCell id="pHll5_dqEuGhhgP8Clkl-144" value="" style="shape=waypoint;sketch=0;fillStyle=solid;size=6;pointerEvents=1;points=[];resizable=0;rotatable=0;perimeter=centerPerimeter;snapToPoint=1;fillColor=#d5e8d4;strokeColor=#82b366;" parent="1" vertex="1">
          <mxGeometry x="310" y="810" width="20" height="20" as="geometry" />
        </mxCell>
        <mxCell id="pHll5_dqEuGhhgP8Clkl-145" value="" style="edgeStyle=orthogonalEdgeStyle;rounded=0;orthogonalLoop=1;jettySize=auto;html=1;" parent="1" source="pHll5_dqEuGhhgP8Clkl-146" target="pHll5_dqEuGhhgP8Clkl-62" edge="1">
          <mxGeometry relative="1" as="geometry" />
        </mxCell>
        <mxCell id="pHll5_dqEuGhhgP8Clkl-146" value="" style="shape=waypoint;sketch=0;fillStyle=solid;size=6;pointerEvents=1;points=[];resizable=0;rotatable=0;perimeter=centerPerimeter;snapToPoint=1;fillColor=#d5e8d4;strokeColor=#82b366;" parent="1" vertex="1">
          <mxGeometry x="310" y="890" width="20" height="20" as="geometry" />
        </mxCell>
        <mxCell id="pHll5_dqEuGhhgP8Clkl-147" value="" style="shape=waypoint;sketch=0;fillStyle=solid;size=6;pointerEvents=1;points=[];resizable=0;rotatable=0;perimeter=centerPerimeter;snapToPoint=1;fillColor=#d5e8d4;strokeColor=#82b366;" parent="1" vertex="1">
          <mxGeometry x="310" y="970" width="20" height="20" as="geometry" />
        </mxCell>
        <mxCell id="pHll5_dqEuGhhgP8Clkl-148" value="" style="shape=waypoint;sketch=0;fillStyle=solid;size=6;pointerEvents=1;points=[];resizable=0;rotatable=0;perimeter=centerPerimeter;snapToPoint=1;fillColor=#d5e8d4;strokeColor=#82b366;" parent="1" vertex="1">
          <mxGeometry x="310" y="1050" width="20" height="20" as="geometry" />
        </mxCell>
        <mxCell id="pHll5_dqEuGhhgP8Clkl-149" value="" style="shape=waypoint;sketch=0;fillStyle=solid;size=6;pointerEvents=1;points=[];resizable=0;rotatable=0;perimeter=centerPerimeter;snapToPoint=1;fillColor=#d5e8d4;strokeColor=#82b366;" parent="1" vertex="1">
          <mxGeometry x="310" y="1130" width="20" height="20" as="geometry" />
        </mxCell>
        <mxCell id="pHll5_dqEuGhhgP8Clkl-150" value="" style="endArrow=classic;html=1;rounded=0;exitX=0.75;exitY=0.7;exitDx=0;exitDy=0;exitPerimeter=0;entryX=0;entryY=0.25;entryDx=0;entryDy=0;fillColor=#d5e8d4;strokeColor=#82b366;" parent="1" source="pHll5_dqEuGhhgP8Clkl-166" target="pHll5_dqEuGhhgP8Clkl-59" edge="1">
          <mxGeometry width="50" height="50" relative="1" as="geometry">
            <mxPoint x="380" y="540" as="sourcePoint" />
            <mxPoint x="430" y="490" as="targetPoint" />
          </mxGeometry>
        </mxCell>
        <mxCell id="pHll5_dqEuGhhgP8Clkl-151" value="" style="shape=waypoint;sketch=0;fillStyle=solid;size=6;pointerEvents=1;points=[];resizable=0;rotatable=0;perimeter=centerPerimeter;snapToPoint=1;fillColor=#d5e8d4;strokeColor=#82b366;" parent="1" vertex="1">
          <mxGeometry x="310" y="580" width="20" height="20" as="geometry" />
        </mxCell>
        <mxCell id="pHll5_dqEuGhhgP8Clkl-152" value="" style="endArrow=classic;html=1;rounded=0;fillColor=#d5e8d4;strokeColor=#82b366;" parent="1" edge="1">
          <mxGeometry width="50" height="50" relative="1" as="geometry">
            <mxPoint x="320" y="659.69" as="sourcePoint" />
            <mxPoint x="360" y="660" as="targetPoint" />
            <Array as="points">
              <mxPoint x="360" y="659.69" />
            </Array>
          </mxGeometry>
        </mxCell>
        <mxCell id="pHll5_dqEuGhhgP8Clkl-153" value="" style="endArrow=classic;html=1;rounded=0;fillColor=#d5e8d4;strokeColor=#82b366;" parent="1" edge="1">
          <mxGeometry width="50" height="50" relative="1" as="geometry">
            <mxPoint x="320" y="740" as="sourcePoint" />
            <mxPoint x="360" y="740" as="targetPoint" />
            <Array as="points">
              <mxPoint x="360" y="739.69" />
            </Array>
          </mxGeometry>
        </mxCell>
        <mxCell id="pHll5_dqEuGhhgP8Clkl-154" value="" style="endArrow=classic;html=1;rounded=0;fillColor=#d5e8d4;strokeColor=#82b366;" parent="1" edge="1">
          <mxGeometry width="50" height="50" relative="1" as="geometry">
            <mxPoint x="320" y="819.69" as="sourcePoint" />
            <mxPoint x="360" y="820" as="targetPoint" />
            <Array as="points">
              <mxPoint x="360" y="819.69" />
            </Array>
          </mxGeometry>
        </mxCell>
        <mxCell id="pHll5_dqEuGhhgP8Clkl-155" value="" style="endArrow=classic;html=1;rounded=0;fillColor=#d5e8d4;strokeColor=#82b366;" parent="1" edge="1">
          <mxGeometry width="50" height="50" relative="1" as="geometry">
            <mxPoint x="320" y="899.69" as="sourcePoint" />
            <mxPoint x="360" y="900" as="targetPoint" />
            <Array as="points">
              <mxPoint x="360" y="899.69" />
            </Array>
          </mxGeometry>
        </mxCell>
        <mxCell id="pHll5_dqEuGhhgP8Clkl-156" value="" style="endArrow=classic;html=1;rounded=0;fillColor=#d5e8d4;strokeColor=#82b366;" parent="1" edge="1">
          <mxGeometry width="50" height="50" relative="1" as="geometry">
            <mxPoint x="320" y="979.69" as="sourcePoint" />
            <mxPoint x="360" y="980" as="targetPoint" />
            <Array as="points">
              <mxPoint x="360" y="979.69" />
            </Array>
          </mxGeometry>
        </mxCell>
        <mxCell id="pHll5_dqEuGhhgP8Clkl-157" value="" style="endArrow=classic;html=1;rounded=0;fillColor=#d5e8d4;strokeColor=#82b366;" parent="1" edge="1">
          <mxGeometry width="50" height="50" relative="1" as="geometry">
            <mxPoint x="320" y="1139.69" as="sourcePoint" />
            <mxPoint x="360" y="1140" as="targetPoint" />
            <Array as="points">
              <mxPoint x="360" y="1139.69" />
            </Array>
          </mxGeometry>
        </mxCell>
        <mxCell id="pHll5_dqEuGhhgP8Clkl-158" value="" style="endArrow=classic;html=1;rounded=0;fillColor=#d5e8d4;strokeColor=#82b366;" parent="1" edge="1">
          <mxGeometry width="50" height="50" relative="1" as="geometry">
            <mxPoint x="320" y="1219.69" as="sourcePoint" />
            <mxPoint x="360" y="1220" as="targetPoint" />
            <Array as="points">
              <mxPoint x="360" y="1219.69" />
            </Array>
          </mxGeometry>
        </mxCell>
        <mxCell id="pHll5_dqEuGhhgP8Clkl-159" value="" style="endArrow=none;html=1;rounded=0;entryX=0.762;entryY=0.7;entryDx=0;entryDy=0;entryPerimeter=0;fillColor=#d5e8d4;strokeColor=#82b366;" parent="1" target="pHll5_dqEuGhhgP8Clkl-148" edge="1">
          <mxGeometry width="50" height="50" relative="1" as="geometry">
            <mxPoint x="320" y="1220" as="sourcePoint" />
            <mxPoint x="460" y="1090" as="targetPoint" />
          </mxGeometry>
        </mxCell>
        <mxCell id="pHll5_dqEuGhhgP8Clkl-160" value="" style="shape=waypoint;sketch=0;fillStyle=solid;size=6;pointerEvents=1;points=[];resizable=0;rotatable=0;perimeter=centerPerimeter;snapToPoint=1;" parent="1" vertex="1">
          <mxGeometry x="430" y="580" width="20" height="20" as="geometry" />
        </mxCell>
        <mxCell id="3qQVDA43KP5LIHfsfRAw-5" value="" style="edgeStyle=orthogonalEdgeStyle;rounded=0;orthogonalLoop=1;jettySize=auto;html=1;" parent="1" source="pHll5_dqEuGhhgP8Clkl-161" target="pHll5_dqEuGhhgP8Clkl-67" edge="1">
          <mxGeometry relative="1" as="geometry" />
        </mxCell>
        <mxCell id="pHll5_dqEuGhhgP8Clkl-161" value="" style="shape=waypoint;sketch=0;fillStyle=solid;size=6;pointerEvents=1;points=[];resizable=0;rotatable=0;perimeter=centerPerimeter;snapToPoint=1;" parent="1" vertex="1">
          <mxGeometry x="430" y="650" width="20" height="20" as="geometry" />
        </mxCell>
        <mxCell id="pHll5_dqEuGhhgP8Clkl-162" value="" style="shape=waypoint;sketch=0;fillStyle=solid;size=6;pointerEvents=1;points=[];fillColor=#d5e8d4;resizable=0;rotatable=0;perimeter=centerPerimeter;snapToPoint=1;strokeColor=#82b366;" parent="1" vertex="1">
          <mxGeometry x="710" y="-70" width="20" height="20" as="geometry" />
        </mxCell>
        <mxCell id="pHll5_dqEuGhhgP8Clkl-163" value="" style="shape=waypoint;sketch=0;fillStyle=solid;size=6;pointerEvents=1;points=[];fillColor=none;resizable=0;rotatable=0;perimeter=centerPerimeter;snapToPoint=1;strokeColor=#82B366;" parent="1" vertex="1">
          <mxGeometry x="830" y="-70" width="20" height="20" as="geometry" />
        </mxCell>
        <mxCell id="pHll5_dqEuGhhgP8Clkl-164" value="" style="shape=waypoint;sketch=0;fillStyle=solid;size=6;pointerEvents=1;points=[];fillColor=none;resizable=0;rotatable=0;perimeter=centerPerimeter;snapToPoint=1;" parent="1" vertex="1">
          <mxGeometry x="960" y="-70" width="20" height="20" as="geometry" />
        </mxCell>
        <mxCell id="pHll5_dqEuGhhgP8Clkl-165" value="" style="shape=waypoint;sketch=0;fillStyle=solid;size=6;pointerEvents=1;points=[];fillColor=none;resizable=0;rotatable=0;perimeter=centerPerimeter;snapToPoint=1;strokeColor=#82B366;" parent="1" vertex="1">
          <mxGeometry x="830" y="-310" width="20" height="20" as="geometry" />
        </mxCell>
        <mxCell id="pHll5_dqEuGhhgP8Clkl-166" value="" style="shape=waypoint;sketch=0;fillStyle=solid;size=6;pointerEvents=1;points=[];fillColor=#d5e8d4;resizable=0;rotatable=0;perimeter=centerPerimeter;snapToPoint=1;strokeColor=#82b366;" parent="1" vertex="1">
          <mxGeometry x="330" y="480" width="20" height="20" as="geometry" />
        </mxCell>
        <mxCell id="pHll5_dqEuGhhgP8Clkl-167" value="" style="shape=waypoint;sketch=0;fillStyle=solid;size=6;pointerEvents=1;points=[];fillColor=#d5e8d4;resizable=0;rotatable=0;perimeter=centerPerimeter;snapToPoint=1;strokeColor=#82b366;" parent="1" vertex="1">
          <mxGeometry x="330" y="410" width="20" height="20" as="geometry" />
        </mxCell>
        <mxCell id="dWdl0Sf_K_gs-Eo9Z99r-6" style="edgeStyle=orthogonalEdgeStyle;rounded=0;orthogonalLoop=1;jettySize=auto;html=1;exitX=1;exitY=0.5;exitDx=0;exitDy=0;entryX=0;entryY=0.5;entryDx=0;entryDy=0;" parent="1" source="vff2z59Xqu5uFpUDsONl-1" target="dWdl0Sf_K_gs-Eo9Z99r-5" edge="1">
          <mxGeometry relative="1" as="geometry" />
        </mxCell>
        <mxCell id="vff2z59Xqu5uFpUDsONl-1" value="&lt;div&gt;MTH 343&lt;/div&gt;" style="rounded=0;whiteSpace=wrap;html=1;fillColor=#ffe6cc;strokeColor=#d79b00;" parent="1" vertex="1">
          <mxGeometry x="640" y="240" width="60" height="40" as="geometry" />
        </mxCell>
        <mxCell id="vff2z59Xqu5uFpUDsONl-2" value="MTH 499" style="rounded=0;whiteSpace=wrap;html=1;fillColor=#d5e8d4;strokeColor=#82b366;" parent="1" vertex="1">
          <mxGeometry x="760" y="320" width="60" height="40" as="geometry" />
        </mxCell>
        <mxCell id="vff2z59Xqu5uFpUDsONl-5" value="" style="edgeStyle=orthogonalEdgeStyle;rounded=0;orthogonalLoop=1;jettySize=auto;html=1;fillColor=#d5e8d4;strokeColor=#82b366;" parent="1" edge="1">
          <mxGeometry relative="1" as="geometry">
            <mxPoint x="700" y="339.16999999999996" as="sourcePoint" />
            <mxPoint x="760" y="339.16999999999996" as="targetPoint" />
          </mxGeometry>
        </mxCell>
        <mxCell id="dWdl0Sf_K_gs-Eo9Z99r-1" value="&lt;div&gt;MTH 482&lt;/div&gt;" style="rounded=0;whiteSpace=wrap;html=1;" parent="1" vertex="1">
          <mxGeometry x="760" y="400" width="60" height="40" as="geometry" />
        </mxCell>
        <mxCell id="dWdl0Sf_K_gs-Eo9Z99r-3" value="" style="edgeStyle=orthogonalEdgeStyle;rounded=0;orthogonalLoop=1;jettySize=auto;html=1;entryX=0;entryY=0.5;entryDx=0;entryDy=0;" parent="1" target="dWdl0Sf_K_gs-Eo9Z99r-1" edge="1">
          <mxGeometry relative="1" as="geometry">
            <mxPoint x="700" y="419.5" as="sourcePoint" />
            <mxPoint x="760" y="419.5" as="targetPoint" />
            <Array as="points" />
          </mxGeometry>
        </mxCell>
        <mxCell id="dWdl0Sf_K_gs-Eo9Z99r-5" value="&lt;div&gt;MTH 444&lt;/div&gt;" style="rounded=0;whiteSpace=wrap;html=1;" parent="1" vertex="1">
          <mxGeometry x="760" y="240" width="60" height="40" as="geometry" />
        </mxCell>
        <mxCell id="3y0I9gLtBBAWx4bMKy_n-1" value="&lt;div&gt;MTH 419&lt;/div&gt;" style="rounded=0;whiteSpace=wrap;html=1;fillColor=#ffe6cc;strokeColor=#d79b00;" parent="1" vertex="1">
          <mxGeometry x="880" y="160" width="60" height="40" as="geometry" />
        </mxCell>
        <mxCell id="3y0I9gLtBBAWx4bMKy_n-3" value="" style="shape=waypoint;sketch=0;fillStyle=solid;size=6;pointerEvents=1;points=[];fillColor=#97D077;resizable=0;rotatable=0;perimeter=centerPerimeter;snapToPoint=1;strokeColor=#82B366;" parent="1" vertex="1">
          <mxGeometry x="830" y="170" width="20" height="20" as="geometry" />
        </mxCell>
        <mxCell id="3y0I9gLtBBAWx4bMKy_n-5" value="&lt;div&gt;MTH 512&lt;br&gt;&lt;/div&gt;" style="rounded=0;whiteSpace=wrap;html=1;" parent="1" vertex="1">
          <mxGeometry x="1000" y="240" width="60" height="40" as="geometry" />
        </mxCell>
        <mxCell id="3y0I9gLtBBAWx4bMKy_n-8" value="&lt;div&gt;CPWC&lt;/div&gt;=CLEP=" style="rounded=0;whiteSpace=wrap;html=1;fillColor=#ffe6cc;strokeColor=#d79b00;" parent="1" vertex="1">
          <mxGeometry x="120" y="880" width="60" height="40" as="geometry" />
        </mxCell>
        <mxCell id="3y0I9gLtBBAWx4bMKy_n-10" value="&lt;div&gt;MTH 531&lt;br&gt;&lt;/div&gt;" style="rounded=0;whiteSpace=wrap;html=1;" parent="1" vertex="1">
          <mxGeometry x="760" y="80" width="60" height="40" as="geometry" />
        </mxCell>
        <mxCell id="3y0I9gLtBBAWx4bMKy_n-11" value="&lt;div&gt;MTH 532&lt;br&gt;&lt;/div&gt;" style="rounded=0;whiteSpace=wrap;html=1;" parent="1" vertex="1">
          <mxGeometry x="880" y="80" width="60" height="40" as="geometry" />
        </mxCell>
        <mxCell id="daSiZoFIKa-qaUZPSzsP-1" value="CS 570" style="whiteSpace=wrap;html=1;rounded=0;" parent="1" vertex="1">
          <mxGeometry x="600" y="480" width="60" height="40" as="geometry" />
        </mxCell>
        <mxCell id="daSiZoFIKa-qaUZPSzsP-3" value="&lt;div&gt;MTH 611&lt;br&gt;&lt;/div&gt;" style="rounded=0;whiteSpace=wrap;html=1;" parent="1" vertex="1">
          <mxGeometry x="1000" y="160" width="60" height="40" as="geometry" />
        </mxCell>
        <mxCell id="qLD5dUiFAtWCYFzzCjEJ-1" value="WR 214" style="rounded=0;whiteSpace=wrap;html=1;fillColor=#ffe6cc;strokeColor=#d79b00;" parent="1" vertex="1">
          <mxGeometry x="240" y="960" width="60" height="40" as="geometry" />
        </mxCell>
        <mxCell id="qLD5dUiFAtWCYFzzCjEJ-2" value="WR 227Z" style="rounded=0;whiteSpace=wrap;html=1;fillColor=#d5e8d4;strokeColor=#82b366;" parent="1" vertex="1">
          <mxGeometry x="240" y="1040" width="60" height="40" as="geometry" />
        </mxCell>
      </root>
    </mxGraphModel>
  </diagram>
</mxfile>
